<svg width="104" height="80" viewBox="0 0 104 80" fill="none" xmlns="http://www.w3.org/2000/svg">
<path d="M94.5002 6.41633C100.334 12.833 103.834 19.833 103.834 31.4997C103.833 51.9163 89.2502 69.9997 68.8335 79.333L63.5835 71.7497C82.8335 61.2497 86.9168 47.833 88.0835 39.083C85.1668 40.833 81.0835 41.4163 77.0002 40.833C66.5002 39.6663 58.3335 31.4997 58.3335 20.4163C58.3335 15.1663 60.6668 9.91633 64.1668 5.833C68.2502 1.74967 72.9168 -0.000330767 78.7502 -0.000330257C85.1668 -0.000329696 91.0002 2.91633 94.5002 6.41633ZM36.1668 6.41632C42.0002 12.833 45.5002 19.833 45.5002 31.4997C45.5002 51.9163 30.9168 69.9997 10.5002 79.333L5.25016 71.7497C24.5002 61.2497 28.5835 47.833 29.7502 39.083C26.8335 40.833 22.7502 41.4163 18.6668 40.833C8.16683 39.6663 0.000172028 31.4997 0.000172997 20.4163C0.000173456 15.1663 2.3335 9.91633 5.8335 5.83299C9.3335 1.74966 14.5835 -0.000335866 20.4168 -0.000335356C26.8335 -0.000334796 32.6668 2.91632 36.1668 6.41632Z" fill="#E0C6AD"/>
</svg>
